<?xml version="1.0" encoding="utf-8"?>
<!-- Generator: Adobe Illustrator 21.0.0, SVG Export Plug-In . SVG Version: 6.00 Build 0)  -->
<svg version="1.1"
	 id="Layer_1" xmlns:cc="http://web.resource.org/cc/" xmlns:dc="http://purl.org/dc/elements/1.1/" xmlns:rdf="http://www.w3.org/1999/02/22-rdf-syntax-ns#"
	 xmlns="http://www.w3.org/2000/svg" xmlns:xlink="http://www.w3.org/1999/xlink" x="0px" y="0px" viewBox="0 0 524.9 649.7"
	 style="enable-background:new 0 0 524.9 649.7;" xml:space="preserve">
<style type="text/css">
	.st0{stroke:#000000;stroke-width:1.25;}
</style>
<g>
	<path d="M195.5,606.4l0-0.1c1.6-16.2-15.2-37.2-30.1-55.7c-9.2-11.5-18-22.4-22.7-32.3c-15.3-32.9-30.9-62.7-52.5-66
		c-14.7-2.2-22.1,7.9-30.7,19.7c-3,4.1-6.1,8.4-9.6,12.1l-0.1,0.1c-6.4,6.4-14.2,9.1-21.8,11.7c-9.3,3.2-17.4,5.9-22.3,15.3
		c-3.9,7.2-2.3,17.2-0.7,27.8c1.5,9.8,3.1,19.9,0.3,28.7l-0.1,0.2c-6,16.3-6.9,27.5-2.9,34c5.5,8.9,21.5,10.7,40.1,12.7
		c18.4,2,39.2,4.3,57.6,14.1c29.1,15.2,58.7,18.3,77.2,8C188.3,630.7,194.5,620.4,195.5,606.4z"/>
	<path class="st0" d="M196.6,574.4c6.7,11.1,10.9,22.2,9.9,32.9c-0.5,6.3-1.9,12.1-4.1,17.3c15.8-0.4,33.3-6.9,60.9-8.4
		c18.9-1.5,42.4,6.5,69.4,5.4c-3.7-16.3,1.6-36.3,7.3-56C299.4,593.5,244.1,605.4,196.6,574.4z"/>
	<path d="M507.8,527.7c-6.5-7.3-8.9-17.8-11.2-28c-2.4-10.4-4.6-20.3-10.7-25.5c-7.2-6.3-14.7-6.7-23.2-6.4
		c-11.3,14.2-38.7,32-57.8,26.6c-14.9-4-24.1-20.7-27.2-38.7c-12.5,12-14.7,36.7-16.5,71.4c-0.7,10.8-4.4,23.6-8.4,37.1
		c-6.4,21.9-13.7,46.7-6.1,61.2l0.1,0.1c6.9,13.9,18.1,22.1,32.4,23.8c21,2.5,45.8-9.8,64.5-32.1c14-17,33.5-26.4,50.6-34.6
		c15.4-7.4,28.6-13.8,30.4-22.8C526.1,552.6,520.4,541.8,507.8,527.7z"/>
	<path id="path136" d="M460.9,462.1c-6.7,11.7-34.3,30.2-52.7,25.4c-18.8-4.7-27.2-31.1-23.5-51.1c3.4-22.5,23.5-23.6,48.8-12.5
		C460.6,436.1,468.8,446.6,460.9,462.1z"/>
	<path d="M436.9,288.2c-26.4-38.9-63.1-68.2-62.6-118.9c0.7-61.6,7-178.1-111-168.7C146.8,9.9,177.7,133,176,174.2
		c-2.6,36.2-10.8,63.1-43.2,101.7c-4.4,5.4-8.4,11-12.2,16.9c-31.3,44-63.3,103.8-56.1,156.6c6.9-5.9,15.5-9.8,27.4-8
		c27.1,4.1,44.2,36.5,60.8,72.2c4.2,8.7,12.5,19.1,21.3,30.1c0.9,1.1,1.8,2.2,2.7,3.4c4.9-0.1,9-1,12.2-2.7c0,0,0,0,0,0
		c1.9-1,3.5-2.2,4.8-3.7c0,0,0.1-0.1,0.1-0.1c0.2-0.3,0.5-0.6,0.7-0.8c0,0,0,0,0,0c0.7-0.9,1.2-1.9,1.7-2.9c0-0.1,0.1-0.2,0.1-0.2
		c0.1-0.3,0.2-0.6,0.3-0.9c0-0.1,0.1-0.2,0.1-0.3c0.1-0.3,0.2-0.6,0.3-0.9c0-0.1,0-0.1,0-0.2c0.2-0.7,0.3-1.4,0.3-2.1
		c0-0.1,0-0.2,0-0.3c0-0.3,0-0.6,0.1-0.9c0-0.2,0-0.4,0-0.6c0-0.3,0-0.6,0-0.9c0-0.2,0-0.4,0-0.6c0-0.3,0-0.6-0.1-0.9
		c0-0.3-0.1-0.5-0.1-0.8c-0.1-0.5-0.1-1-0.2-1.5c-0.1-0.3-0.1-0.6-0.2-0.9c-0.1-0.3-0.1-0.6-0.2-0.9c-0.1-0.3-0.1-0.6-0.2-0.9
		c-0.1-0.3-0.2-0.6-0.2-0.9c-0.1-0.3-0.2-0.7-0.3-1c-0.1-0.3-0.2-0.5-0.3-0.8c-0.2-0.6-0.4-1.2-0.7-1.8c-0.1-0.2-0.2-0.5-0.3-0.7
		c-0.2-0.4-0.3-0.8-0.5-1.2c-0.1-0.3-0.3-0.5-0.4-0.8c-0.2-0.4-0.4-0.8-0.6-1.2c-0.1-0.3-0.3-0.5-0.4-0.8c-0.3-0.5-0.5-1-0.8-1.5
		c-0.1-0.2-0.2-0.4-0.3-0.5c-0.4-0.7-0.8-1.3-1.2-2c-0.1-0.2-0.3-0.4-0.4-0.7c-0.3-0.5-0.6-1-1-1.5c-0.2-0.3-0.4-0.5-0.5-0.8
		c-0.3-0.5-0.7-1-1-1.5c-0.2-0.2-0.3-0.5-0.5-0.7c-0.5-0.7-1-1.4-1.6-2.1c0,0-0.1-0.1-0.1-0.1c-0.6-0.7-1.2-1.5-1.8-2.2
		c-0.2-0.2-0.4-0.5-0.6-0.7c-0.5-0.5-0.9-1.1-1.4-1.6c-0.2-0.3-0.5-0.5-0.7-0.8c-0.5-0.6-1-1.1-1.6-1.7c-0.2-0.2-0.4-0.4-0.6-0.6
		c-0.7-0.8-1.5-1.6-2.3-2.3c-0.1-0.1-0.2-0.2-0.3-0.3c-0.7-0.7-1.4-1.4-2.1-2.1c-0.3-0.2-0.5-0.5-0.8-0.7c-0.6-0.6-1.2-1.1-1.8-1.7
		c-0.3-0.3-0.6-0.5-0.9-0.8c-0.7-0.6-1.4-1.2-2.1-1.9c-0.2-0.2-0.4-0.4-0.6-0.5c-0.9-0.8-1.9-1.6-2.9-2.4c-0.2-0.2-0.4-0.4-0.6-0.5
		c-0.8-0.6-1.6-1.3-2.4-1.9c-0.3-0.3-0.7-0.5-1-0.8c-0.7-0.6-1.5-1.1-2.2-1.7c-0.3-0.3-0.7-0.5-1-0.8c-0.9-0.7-1.9-1.4-2.8-2.1
		c-0.2-0.1-0.3-0.3-0.5-0.4c-1.1-0.8-2.3-1.6-3.5-2.5c-0.3-0.2-0.7-0.5-1-0.7c-0.9-0.6-1.8-1.2-2.7-1.8c-0.4-0.3-0.8-0.6-1.3-0.8
		c-0.9-0.6-1.8-1.2-2.7-1.7c-0.4-0.3-0.8-0.5-1.2-0.8c-1.3-0.8-2.6-1.7-4-2.5c-1-0.6-1.9-1.2-2.9-1.9c-0.8-0.6-1.6-1.1-2.4-1.7
		c-0.1,0-0.1-0.1-0.2-0.1c-58.9-42.5-16-117.7,6.5-154.6c5.8-6.6,6.2-3.3-8.7,24.3c-11,20.8-31.5,68.9-3.3,106.4
		c0.7-26.7,7.1-53.9,17.8-79.4c15.6-35.3,48.2-96.6,50.7-145.3c2.4,1.9,5,3.6,8,5.3c4,2.3,7.2,5.3,10.6,8.4
		c7.3,6.6,14.8,13.5,29.8,14.4c1,0.1,2,0.1,3,0.1c15.5,0,26.3-6.9,35.1-12.5c4.5-2.9,8.8-5.6,12.9-7c12.6-3.9,22.9-11.1,28.7-19.3
		c9.9,39.2,33.1,95.8,47.9,123.4c7.9,14.6,23.6,45.8,30.3,83.3c4.3-0.1,9.1,0.5,14.1,1.8c17.7-46-15-95.5-30-109.3
		c-6.9-6.7-6.3-9.2-1.9-8.2c23.9,21.6,57.4,72.9,45.2,122.1c1.6,0.7,3.3,1.4,5,2.2c27.5,13.4,38.3,25.1,34.4,40.8
		c4.3,0.2,8.8,0.7,13.3,2.3C502.4,394.6,469.1,331.7,436.9,288.2z M290,91.5c18.1-0.5,33.1,18,33.6,41.3c0,0,0,0,0,0
		c0.3,12.4-3.7,23.6-10.1,31.5c-0.8-0.4-1.6-0.7-2.4-1.1c-5.8-2.5-10.4-4.1-14.1-5.4c3.4-4.2,5.7-10.7,5.9-17.9c0,0,0,0,0,0
		c0.3-12.8-6.2-23.1-14.4-23.2s-15.1,10.3-15.4,23.1c0,0,0,0,0,0c0,2.3,0.1,4.5,0.5,6.6c-5.3-2.7-10.3-4.5-15-5.6
		c-0.3-2-0.4-4.1-0.5-6.2c0,0,0,0,0,0C257.6,111.2,271.9,92,290,91.5z M208.7,97.9c13-0.8,24.5,14.9,25.7,35.1c0,0,0,0,0,0
		c0.2,2.8,0.1,5.4-0.1,8c-5.2,1.5-9.7,3.8-13.5,6.3c0.3-2.3,0.4-4.8,0.1-7.4c0,0,0,0,0,0c-1-10.6-6.7-18.6-12.6-17.8
		c-5.9,0.7-9.9,9.9-8.9,20.5c0,0,0,0,0,0c0.7,7.6,3.8,13.8,7.7,16.5c0,0,0,0,0,0c-0.3,0.3-1.8,1.4-3.9,2.9c-1.1,0.8-2.5,1.8-4.2,3
		c-6.5-6.2-11.1-16.9-11.8-29.3c0,0,0,0,0,0C186.1,115.6,195.7,98.7,208.7,97.9z M319.8,196.7C319.7,196.7,319.7,196.7,319.8,196.7
		c-0.8,1.1-1.6,2.1-2.5,3.1c0,0-0.1,0.1-0.1,0.1c-0.9,1-1.8,2-2.9,2.9c0,0-0.1,0.1-0.1,0.1c-1,0.9-2.1,1.8-3.3,2.7
		c-0.1,0.1-0.1,0.1-0.2,0.2c-0.6,0.4-1.2,0.8-1.7,1.2c0,0-0.1,0.1-0.2,0.1c-0.6,0.4-1.1,0.7-1.7,1.1c-0.1,0.1-0.2,0.1-0.2,0.2
		c-0.6,0.4-1.2,0.7-1.9,1.1c-0.1,0.1-0.2,0.1-0.3,0.2c-0.6,0.3-1.2,0.6-1.8,0.9c-0.1,0-0.2,0.1-0.3,0.1c-0.7,0.3-1.3,0.6-2,1
		c-0.1,0.1-0.3,0.1-0.4,0.2c-0.6,0.3-1.3,0.6-1.9,0.8c-0.1,0-0.1,0.1-0.2,0.1c-0.7,0.3-1.4,0.5-2.1,0.8c-0.2,0.1-0.3,0.1-0.5,0.2
		c-0.7,0.3-1.4,0.5-2.2,0.7c-4.8,1.6-9.3,4.4-14.1,7.5c-9.2,5.9-19.6,12.5-35.2,11.7c-13.2-0.8-19.8-6.7-26.7-13.1
		c-3.4-3.1-7-6.4-11.5-9c-0.9-0.5-1.8-1-2.6-1.6c-0.2-0.1-0.4-0.3-0.6-0.4c-0.7-0.4-1.4-0.9-2-1.4c-0.1-0.1-0.3-0.2-0.4-0.3
		c-1.7-1.2-3.2-2.4-4.5-3.6c0,0,0,0,0,0l0,0c-5.7-5.1-9.1-10.7-9.4-16.1c-0.3-4.7,1.8-8.9,6-12.1c6.5-4.9,10.9-8.1,13.8-10.2
		c2.8-2.1,3.9-2.9,4.4-3.3c0.5-0.5,1-1,1.6-1.6c0.3-0.3,0.7-0.7,1-1c0,0,0,0,0,0l0,0c1.9-1.8,4-3.8,6.6-5.9c0,0,0,0,0,0
		c1.6-1.2,3.3-2.5,5.2-3.6c0,0,0.1-0.1,0.1-0.1c0.6-0.4,1.2-0.7,1.8-1c0.1,0,0.1-0.1,0.2-0.1c0.6-0.3,1.2-0.7,1.9-1
		c0.1,0,0.1-0.1,0.2-0.1c0.7-0.3,1.3-0.6,2-0.9c0,0,0.1,0,0.1,0c0.7-0.3,1.4-0.6,2.2-0.8c0,0,0,0,0,0l0,0c3.9-1.4,8.2-2.2,13.1-2.2
		c4.3,0,9.1,0.7,14.3,2.3c0.2,0.1,0.4,0.1,0.7,0.2c0.4,0.1,0.8,0.3,1.2,0.4c0.2,0.1,0.5,0.2,0.7,0.3c0.4,0.2,0.8,0.3,1.3,0.5
		c0.2,0.1,0.5,0.2,0.7,0.3c0.4,0.2,0.9,0.4,1.3,0.5c0.2,0.1,0.5,0.2,0.7,0.3c0.5,0.2,0.9,0.4,1.4,0.6c0.2,0.1,0.4,0.2,0.7,0.3
		c0.5,0.2,1,0.5,1.5,0.7c0.2,0.1,0.4,0.2,0.6,0.3c0.5,0.3,1,0.5,1.6,0.8c0.1,0.1,0.3,0.2,0.4,0.2c0.6,0.3,1.2,0.6,1.8,1c0,0,0,0,0,0
		l0,0c1.5,0.8,2.9,1.7,4.5,2.7c4.2,2.7,8,4.2,12.6,5.8l0,0c0.6,0.2,1.2,0.4,1.8,0.6c4,1.4,8.6,3,14.7,5.6c0.2,0.1,0.5,0.2,0.7,0.3
		l0,0c9.5,4.1,14.4,10.1,14,17.6C323.7,189.3,322.2,193.1,319.8,196.7z"/>
	<path d="M242.9,214.1c-21.1,0-36.1-14.1-44.2-21.6c-2.1-2-4.6-4.3-5.4-4.5c0,0,0.1,0,0.1,0v-4c2,0,4.1,2,8,5.6
		c8.2,7.7,21.9,20.6,41.4,20.6c16.9,0,33.3-9.9,46.5-17.9c8.8-5.3,15.7-9.4,20.9-9.7l0.2,4c-4.3,0.3-11.1,4.4-19.1,9.2
		C277.9,203.9,260.9,214.1,242.9,214.1z"/>
</g>
</svg>
