<?xml version="1.0" encoding="utf-8"?>
<!-- Generator: Adobe Illustrator 24.0.1, SVG Export Plug-In . SVG Version: 6.00 Build 0)  -->
<svg version="1.1"
	 id="svg2" xmlns:cc="http://creativecommons.org/ns#" xmlns:dc="http://purl.org/dc/elements/1.1/" xmlns:rdf="http://www.w3.org/1999/02/22-rdf-syntax-ns#" xmlns:svg="http://www.w3.org/2000/svg"
	 xmlns="http://www.w3.org/2000/svg" xmlns:xlink="http://www.w3.org/1999/xlink" x="0px" y="0px" viewBox="0 0 260 145"
	 style="enable-background:new 0 0 260 145;" xml:space="preserve">
<style type="text/css">
	.st0{fill:#394D54;}
	.st1{clip-path:url(#SVGID_2_);}
	.st2{fill:#00ACD3;}
	.st3{fill:#20C2EF;}
	.st4{stroke:#394D54;stroke-width:1.56;}
	.st5{clip-path:url(#SVGID_4_);fill:#17B5EB;}
	.st6{clip-path:url(#SVGID_6_);fill-opacity:0.17;}
	.st7{clip-path:url(#SVGID_8_);fill:#D4EDF1;}
	.st8{clip-path:url(#SVGID_10_);fill-opacity:8.500000e-02;}
	.st9{fill:none;stroke:#394D54;stroke-width:3.4;stroke-linecap:round;}
	.st10{fill:#D4EDF1;}
</style>
<path id="path14" class="st0" d="M147.5,45.7h22.9v23.4h11.6c5.3,0,10.8-1,15.9-2.7c2.5-0.8,5.3-2,7.7-3.5
	c-3.2-4.2-4.9-9.5-5.4-14.8c-0.7-7.1,0.8-16.4,5.6-22l2.4-2.8l2.9,2.3c7.2,5.8,13.3,13.9,14.3,23.1c8.7-2.6,18.9-2,26.5,2.5l3.1,1.8
	l-1.7,3.2c-6.5,12.6-20,16.5-33.2,15.9c-19.8,49.3-62.9,72.7-115.2,72.7c-27,0-51.8-10.1-65.9-34c-0.8-1.5-1.5-3-2.3-4.6
	c-4.8-10.5-6.4-22.1-5.3-33.6l0.3-3.5h19.6V45.7h22.9V22.9H120V0h27.4L147.5,45.7"/>
<g>
	<defs>
		<path id="SVGID_1_" d="M76,2v46H54v23H35.6c-0.1,0.7-0.1,1.3-0.2,2c-1.2,12.5,1,24.1,6.1,34l1.7,3c1,1.8,2.2,3.5,3.4,5.2
			c1.2,1.7,1.7,2.6,2.5,3.7c13.3,14.9,33.1,22.1,56,22.1c50.6,0,93.6-22.4,112.7-72.8c13.5,1.4,26.4-2.1,32.3-13.6
			c-9.4-5.4-21.5-3.7-28.4-0.2L240,2l-72,46h-23V2H76z"/>
	</defs>
	<clipPath id="SVGID_2_">
		<use xlink:href="#SVGID_1_"  style="overflow:visible;"/>
	</clipPath>
	<g id="g16" class="st1">
		<g id="g18">
			<g id="g20" transform="translate(0,-22.866)">
				<path id="path22" class="st2" d="M123.9,3.8h19.8v19.8h-19.8L123.9,3.8z"/>
				<path id="path24" class="st3" d="M123.9,26.7h19.8v19.8h-19.8L123.9,26.7z"/>
				<path id="path26" class="st4" d="M126.3,22V5.5 M129.3,22V5.5 M132.3,22V5.5 M135.3,22V5.5 M138.3,22V5.5 M141.2,22V5.5"/>
				<g id="use28" transform="translate(0,22.866)">
					<path id="path26_1_" class="st4" d="M126.3,44.8V28.3 M129.3,44.8V28.3 M132.3,44.8V28.3 M135.3,44.8V28.3 M138.3,44.8V28.3
						 M141.2,44.8V28.3"/>
				</g>
			</g>
			<g id="use30" transform="matrix(1,0,0,-1,22.866,4.572651)">
				<g id="g20_1_" transform="translate(0,-22.866)">
					<path id="path22_1_" class="st2" d="M146.7,46.5h19.8V26.7h-19.8V46.5z"/>
					<path id="path24_1_" class="st3" d="M146.7,23.6h19.8V3.8h-19.8V23.6z"/>
					<path id="path26_2_" class="st4" d="M149.2,28.3v16.5 M152.1,28.3v16.5 M155.1,28.3v16.5 M158.1,28.3v16.5 M161.1,28.3v16.5
						 M164.1,28.3v16.5"/>
					<g id="use28_1_" transform="translate(0,22.866)">
						<path id="path26_3_" class="st4" d="M149.2,5.5V22 M152.1,5.5V22 M155.1,5.5V22 M158.1,5.5V22 M161.1,5.5V22 M164.1,5.5V22"/>
					</g>
				</g>
			</g>
		</g>
		<g id="use32" transform="translate(-91.464,45.732)">
			<g id="g18_1_">
				<g id="g20_2_" transform="translate(0,-22.866)">
					<path id="path22_2_" class="st2" d="M32.4,49.5h19.8v19.8H32.4L32.4,49.5z"/>
					<path id="path24_2_" class="st3" d="M32.4,72.4h19.8v19.8H32.4L32.4,72.4z"/>
					<path id="path26_4_" class="st4" d="M34.8,67.7V51.2 M37.8,67.7V51.2 M40.8,67.7V51.2 M43.8,67.7V51.2 M46.8,67.7V51.2
						 M49.8,67.7V51.2"/>
					<g id="use28_2_" transform="translate(0,22.866)">
						<path id="path26_5_" class="st4" d="M34.8,90.6V74.1 M37.8,90.6V74.1 M40.8,90.6V74.1 M43.8,90.6V74.1 M46.8,90.6V74.1
							 M49.8,90.6V74.1"/>
					</g>
				</g>
				<g id="use30_1_" transform="matrix(1,0,0,-1,22.866,4.572651)">
					<g id="g20_3_" transform="translate(0,-22.866)">
						<path id="path22_3_" class="st2" d="M55.3,92.2h19.8V72.4H55.3L55.3,92.2z"/>
						<path id="path24_3_" class="st3" d="M55.3,69.4h19.8V49.5H55.3L55.3,69.4z"/>
						<path id="path26_6_" class="st4" d="M57.7,74.1v16.5 M60.7,74.1v16.5 M63.7,74.1v16.5 M66.7,74.1v16.5 M69.7,74.1v16.5
							 M72.6,74.1v16.5"/>
						<g id="use28_3_" transform="translate(0,22.866)">
							<path id="path26_7_" class="st4" d="M57.7,51.2v16.5 M60.7,51.2v16.5 M63.7,51.2v16.5 M66.7,51.2v16.5 M69.7,51.2v16.5
								 M72.6,51.2v16.5"/>
						</g>
					</g>
				</g>
			</g>
		</g>
		<g id="use34" transform="translate(-45.732,45.732)">
			<g id="g18_2_">
				<g id="g20_4_" transform="translate(0,-22.866)">
					<path id="path22_4_" class="st2" d="M78.1,49.5h19.8v19.8H78.1L78.1,49.5z"/>
					<path id="path24_4_" class="st3" d="M78.1,72.4h19.8v19.8H78.1L78.1,72.4z"/>
					<path id="path26_8_" class="st4" d="M80.6,67.7V51.2 M83.5,67.7V51.2 M86.5,67.7V51.2 M89.5,67.7V51.2 M92.5,67.7V51.2
						 M95.5,67.7V51.2"/>
					<g id="use28_4_" transform="translate(0,22.866)">
						<path id="path26_9_" class="st4" d="M80.6,90.6V74.1 M83.5,90.6V74.1 M86.5,90.6V74.1 M89.5,90.6V74.1 M92.5,90.6V74.1
							 M95.5,90.6V74.1"/>
					</g>
				</g>
				<g id="use30_2_" transform="matrix(1,0,0,-1,22.866,4.572651)">
					<g id="g20_5_" transform="translate(0,-22.866)">
						<path id="path22_5_" class="st2" d="M101,92.2h19.8V72.4H101L101,92.2z"/>
						<path id="path24_5_" class="st3" d="M101,69.4h19.8V49.5H101L101,69.4z"/>
						<path id="path26_10_" class="st4" d="M103.4,74.1v16.5 M106.4,74.1v16.5 M109.4,74.1v16.5 M112.4,74.1v16.5 M115.4,74.1v16.5
							 M118.4,74.1v16.5"/>
						<g id="use28_5_" transform="translate(0,22.866)">
							<path id="path26_11_" class="st4" d="M103.4,51.2v16.5 M106.4,51.2v16.5 M109.4,51.2v16.5 M112.4,51.2v16.5 M115.4,51.2v16.5
								 M118.4,51.2v16.5"/>
						</g>
					</g>
				</g>
			</g>
		</g>
		<g id="use36" transform="translate(0,45.732)">
			<g id="g18_3_">
				<g id="g20_6_" transform="translate(0,-22.866)">
					<path id="path22_6_" class="st2" d="M123.9,49.5h19.8v19.8h-19.8L123.9,49.5z"/>
					<path id="path24_6_" class="st3" d="M123.9,72.4h19.8v19.8h-19.8L123.9,72.4z"/>
					<path id="path26_12_" class="st4" d="M126.3,67.7V51.2 M129.3,67.7V51.2 M132.3,67.7V51.2 M135.3,67.7V51.2 M138.3,67.7V51.2
						 M141.2,67.7V51.2"/>
					<g id="use28_6_" transform="translate(0,22.866)">
						<path id="path26_13_" class="st4" d="M126.3,90.6V74.1 M129.3,90.6V74.1 M132.3,90.6V74.1 M135.3,90.6V74.1 M138.3,90.6V74.1
							 M141.2,90.6V74.1"/>
					</g>
				</g>
				<g id="use30_3_" transform="matrix(1,0,0,-1,22.866,4.572651)">
					<g id="g20_7_" transform="translate(0,-22.866)">
						<path id="path22_7_" class="st2" d="M146.7,92.2h19.8V72.4h-19.8V92.2z"/>
						<path id="path24_7_" class="st3" d="M146.7,69.4h19.8V49.5h-19.8V69.4z"/>
						<path id="path26_14_" class="st4" d="M149.2,74.1v16.5 M152.1,74.1v16.5 M155.1,74.1v16.5 M158.1,74.1v16.5 M161.1,74.1v16.5
							 M164.1,74.1v16.5"/>
						<g id="use28_7_" transform="translate(0,22.866)">
							<path id="path26_15_" class="st4" d="M149.2,51.2v16.5 M152.1,51.2v16.5 M155.1,51.2v16.5 M158.1,51.2v16.5 M161.1,51.2v16.5
								 M164.1,51.2v16.5"/>
						</g>
					</g>
				</g>
			</g>
		</g>
	</g>
</g>
<g>
	<defs>
		<path id="SVGID_3_" d="M76,2v46H54v23H35.6c-0.1,0.7-0.1,1.3-0.2,2c-1.2,12.5,1,24.1,6.1,34l1.7,3c1,1.8,2.2,3.5,3.4,5.2
			c1.2,1.7,1.7,2.6,2.5,3.7c13.3,14.9,33.1,22.1,56,22.1c50.6,0,93.6-22.4,112.7-72.8c13.5,1.4,26.4-2.1,32.3-13.6
			c-9.4-5.4-21.5-3.7-28.4-0.2L240,2l-72,46h-23V2H76z"/>
	</defs>
	<clipPath id="SVGID_4_">
		<use xlink:href="#SVGID_3_"  style="overflow:visible;"/>
	</clipPath>
	<path id="path38" class="st5" d="M221.6,54.4c1.5-11.9-7.4-21.3-12.9-25.7c-6.4,7.4-7.4,26.7,2.6,34.8c-5.6,5-17.3,9.4-29.4,9.4H34
		c-1.2,12.6,0,73.1,0,73.1h217l-1-91.4C240.6,49.2,228.5,50.9,221.6,54.4"/>
</g>
<g>
	<defs>
		<path id="SVGID_5_" d="M76,2v46H54v23H35.6c-0.1,0.7-0.1,1.3-0.2,2c-1.2,12.5,1,24.1,6.1,34l1.7,3c1,1.8,2.2,3.5,3.4,5.2
			c1.2,1.7,1.7,2.6,2.5,3.7c13.3,14.9,33.1,22.1,56,22.1c50.6,0,93.6-22.4,112.7-72.8c13.5,1.4,26.4-2.1,32.3-13.6
			c-9.4-5.4-21.5-3.7-28.4-0.2L240,2l-72,46h-23V2H76z"/>
	</defs>
	<clipPath id="SVGID_6_">
		<use xlink:href="#SVGID_5_"  style="overflow:visible;"/>
	</clipPath>
	<path id="path40" class="st6" d="M34,89v57h217V89"/>
</g>
<g>
	<defs>
		<path id="SVGID_7_" d="M76,2v46H54v23H35.6c-0.1,0.7-0.1,1.3-0.2,2c-1.2,12.5,1,24.1,6.1,34l1.7,3c1,1.8,2.2,3.5,3.4,5.2
			c1.2,1.7,1.7,2.6,2.5,3.7c13.3,14.9,33.1,22.1,56,22.1c50.6,0,93.6-22.4,112.7-72.8c13.5,1.4,26.4-2.1,32.3-13.6
			c-9.4-5.4-21.5-3.7-28.4-0.2L240,2l-72,46h-23V2H76z"/>
	</defs>
	<clipPath id="SVGID_8_">
		<use xlink:href="#SVGID_7_"  style="overflow:visible;"/>
	</clipPath>
	<path id="path42" class="st7" d="M111.2,140.9c-13.5-6.4-21-15.2-25.1-24.7L45,118l21,28L111.2,140.9"/>
</g>
<g>
	<defs>
		<path id="SVGID_9_" d="M76,2v46H54v23H35.6c-0.1,0.7-0.1,1.3-0.2,2c-1.2,12.5,1,24.1,6.1,34l1.7,3c1,1.8,2.2,3.5,3.4,5.2
			c1.2,1.7,1.7,2.6,2.5,3.7c13.3,14.9,33.1,22.1,56,22.1c50.6,0,93.6-22.4,112.7-72.8c13.5,1.4,26.4-2.1,32.3-13.6
			c-9.4-5.4-21.5-3.7-28.4-0.2L240,2l-72,46h-23V2H76z"/>
	</defs>
	<clipPath id="SVGID_10_">
		<use xlink:href="#SVGID_9_"  style="overflow:visible;"/>
	</clipPath>
	<path id="path44" class="st8" d="M222.5,53.9L222.5,53.9c-20.9,26.9-50.8,50.4-82.9,62.8c-28.7,11-53.6,11.1-70.9,2.2
		c-1.9-1-3.7-2.2-5.5-3.3c-12.6-8.8-19.8-23.4-19.2-42.7H34V146h217V50h-25L222.5,53.9z"/>
</g>
<path id="path46" class="st9" d="M45.6,117c14.2,0.8,29.3,0.9,42.5-3.2"/>
<path id="path48" class="st10" d="M102.2,107c0,3-2.4,5.5-5.5,5.5c-3,0-5.5-2.4-5.5-5.5c0-3,2.4-5.5,5.5-5.5
	C99.7,101.5,102.2,103.9,102.2,107z"/>
<path id="path50" class="st0" d="M98.1,103.3c-0.5,0.3-0.8,0.8-0.8,1.4c0,0.9,0.7,1.6,1.6,1.6c0.6,0,1.1-0.3,1.4-0.8
	c0.2,0.5,0.3,1,0.3,1.5c0,2.2-1.8,3.9-3.9,3.9c-2.2,0-3.9-1.8-3.9-3.9c0-2.2,1.8-3.9,3.9-3.9C97.2,103,97.7,103.1,98.1,103.3z"/>
<path id="path52" class="st0" d="M0,90.2h254.3c-5.5-1.4-17.5-3.3-15.5-10.6c-10.1,11.7-34.4,8.2-40.5,2.4
	c-6.8,9.9-46.6,6.1-49.3-1.6c-8.6,10-35.1,10-43.6,0C102.6,88.2,62.9,91.9,56,82c-6.1,5.7-30.4,9.2-40.5-2.4
	C17.5,86.9,5.5,88.8,0,90.2"/>
</svg>
