<svg id="Layer_1" data-name="Layer 1" xmlns="http://www.w3.org/2000/svg" viewBox="0 0 256 256"><defs><style>.cls-1{fill:#8cc63f;}.cls-2{fill:#fff;opacity:0.5;}.cls-3{fill:#384c19;}</style></defs><title>file-cauldron</title><polygon class="cls-1" points="233.83 250.06 22.17 248.95 22.17 74.7 92.85 5.94 233.83 5.94 233.83 250.06"/><polygon class="cls-2" points="92.85 5.94 22.17 74.7 92.85 74.7 92.85 5.94"/><path d="M133,228.5a74.24,74.24,0,0,1-26.86-5,71.3,71.3,0,0,1-23.62-14.94,67.44,67.44,0,0,1-15.68-22.5,65.25,65.25,0,0,1,0-51.18,67.44,67.44,0,0,1,15.68-22.5,71.29,71.29,0,0,1,13-9.8A72.68,72.68,0,0,1,110,96.09h0a3,3,0,0,1,2.93.65L129,112a2.69,2.69,0,0,1-1.67,4.62h0a48,48,0,0,0-14.43,4,46.34,46.34,0,0,0-12.7,8.6A43.83,43.83,0,0,0,90,143.86a42.43,42.43,0,0,0,0,33.27,43.83,43.83,0,0,0,10.19,14.62,46.34,46.34,0,0,0,15.35,9.71,48.72,48.72,0,0,0,34.92,0,46.34,46.34,0,0,0,15.35-9.71,44.2,44.2,0,0,0,9-12.1A42.48,42.48,0,0,0,179,165.9h0a2.89,2.89,0,0,1,4.85-1.59l16,15.26a2.63,2.63,0,0,1,.68,2.79h0a66.27,66.27,0,0,1-6.84,13.84,69,69,0,0,1-10.29,12.38,71.3,71.3,0,0,1-23.62,14.94A74.24,74.24,0,0,1,133,228.5Z"/><path class="cls-3" d="M132.38,194.93c-13.2,0-26-6.34-32.51-16.16l-.06-.08a.22.22,0,0,1,0-.26.47.47,0,0,1,.39-.24.43.43,0,0,1,.26.1,34.55,34.55,0,0,0,20.84,7c8.46,0,17.14-3,25.8-8.84a43.2,43.2,0,0,0,4.38-3.39.44.44,0,0,1,.29-.1h15.89a.41.41,0,0,1,.37.19.26.26,0,0,1,0,.28,40.67,40.67,0,0,1-13.17,14.62,39.91,39.91,0,0,1-22.47,6.85Z"/></svg>