<svg id="Layer_1" data-name="Layer 1" xmlns="http://www.w3.org/2000/svg" viewBox="0 0 256 256"><defs><style>.cls-1{fill:#b3b3b3;}.cls-2,.cls-4{fill:#fff;}.cls-2{opacity:0.5;}.cls-3{fill:#c1272d;}</style></defs><title>file-javasript</title><polygon class="cls-1" points="233.83 250.06 22.17 248.95 22.17 74.7 92.85 5.94 233.83 5.94 233.83 250.06"/><polygon class="cls-2" points="92.85 5.94 22.17 74.7 92.85 74.7 92.85 5.94"/><rect class="cls-3" x="22.17" y="100.35" width="211.67" height="125.5"/><path class="cls-4" d="M39,158.86c8-.22,8.85-4.13,8.85-7.39a73.15,73.15,0,0,0-.7-8.48,74.08,74.08,0,0,1-.58-8.59c0-10.22,6.87-14.68,17.7-14.68h4.07V129h-2.1c-5.24,0-7.1,2.94-7.1,7.72,0,2,.35,3.91.58,6.2a66.61,66.61,0,0,1,.58,7.39c.12,8.26-3.49,11.31-9.9,12.61v.22c6.4,1.3,10,4.46,9.9,12.72a70.87,70.87,0,0,1-.58,7.61c-.23,2.17-.58,4.24-.58,6.09,0,4.78,1.75,7.83,7.1,7.83h2.1v9.13H64.15c-10.36,0-17.58-3.91-17.58-14.79a74.08,74.08,0,0,1,.58-8.59,73.15,73.15,0,0,0,.7-8.48c0-3-.82-7.18-8.85-7.39Z"/><path class="cls-4" d="M96.28,121H114v46.32c0,20.88-10.71,28.16-27.94,28.16a49.24,49.24,0,0,1-12.92-1.74l2-13.37a31.08,31.08,0,0,0,9.08,1.3c7.45,0,12.11-3.15,12.11-14.57Z"/><path class="cls-4" d="M129.34,177.24A47.84,47.84,0,0,0,149,181.8c8.15,0,12.46-3.15,12.46-7.94,0-4.57-3.73-7.18-13.16-10.33-13-4.24-21.54-11-21.54-21.64,0-12.51,11.18-22.07,29.69-22.07a51,51,0,0,1,20,3.7l-4,13.37a39.45,39.45,0,0,0-16.41-3.48c-7.68,0-11.41,3.26-11.41,7.07,0,4.68,4.42,6.74,14.55,10.33,13.85,4.78,20.37,11.53,20.37,21.86,0,12.29-10.13,22.73-31.67,22.73-9,0-17.81-2.17-22.24-4.46Z"/><path class="cls-4" d="M217,167.23c-7.92.22-8.85,4.35-8.85,7.39a73.15,73.15,0,0,0,.7,8.48,74.91,74.91,0,0,1,.7,8.59c0,10.87-7.22,14.79-17.7,14.79h-4.19v-9.13h2.1c5.36-.11,7.1-3,7.1-7.83a39.38,39.38,0,0,0-.58-6.09,70.81,70.81,0,0,1-.58-7.61c-.12-8.26,3.49-11.42,10-12.72v-.22c-6.52-1.3-10.13-4.35-10-12.61a66.55,66.55,0,0,1,.58-7.39,40.71,40.71,0,0,0,.58-6.2c0-4.78-1.86-7.61-7.1-7.72h-2.1v-9.24h4.07c10.94,0,17.81,4.46,17.81,14.68a74.91,74.91,0,0,1-.7,8.59,73.15,73.15,0,0,0-.7,8.48c0,3.26.93,7.18,8.85,7.39Z"/></svg>