<svg id="Layer_1" data-name="Layer 1" xmlns="http://www.w3.org/2000/svg" viewBox="0 0 256 256"><defs><style>.cls-1{fill:#b3b3b3;}.cls-2,.cls-4{fill:#fff;}.cls-2{opacity:0.5;}.cls-3{fill:gray;}</style></defs><title>file-python</title><polygon class="cls-1" points="233.83 250.06 22.17 248.95 22.17 74.7 92.85 5.94 233.83 5.94 233.83 250.06"/><polygon class="cls-2" points="92.85 5.94 22.17 74.7 92.85 74.7 92.85 5.94"/><rect class="cls-3" x="22.17" y="100.52" width="211.67" height="125.5"/><path id="path46" class="cls-4" d="M112,149.77q0-24.41-13.92-25.09a26.15,26.15,0,0,0-10.81,1.78c-2.8,1-4.68,2-5.68,3V168.3q8.91,5.59,15.81,5.19Q112,172.52,112,149.77Zm11.45.68q0,12.4-5.84,20.59a21.53,21.53,0,0,1-18.07,9.53q-8.71.28-17.94-5.45v35.31l-10-3.55V128.5A22.24,22.24,0,0,1,78,123.32q8.89-5.18,21.6-5.32l.14.14a19.82,19.82,0,0,1,17.91,9.53Q123.47,136.55,123.48,150.44Z"/><path id="path48" class="cls-4" d="M184.33,173.62q0,16.64-3.33,23t-12.76,10.22a48.84,48.84,0,0,1-16.49,3.28l-1.65-6.27a79.25,79.25,0,0,0,12.68-2.45q7.24-2.45,10-7.5,2.19-4.1,2.18-15.68v-2.59a51.16,51.16,0,0,1-21.41,4.63,19.68,19.68,0,0,1-13-4.63,15.75,15.75,0,0,1-6.28-12.81V121.41l10-3.41v41.71q0,6.68,4.31,10.29t11.17,3.48q6.85-.15,14.65-5.32V119.5h10Z"/></svg>