<svg id="Layer_1" data-name="Layer 1" xmlns="http://www.w3.org/2000/svg" viewBox="0 0 256 256"><defs><style>.cls-1{fill:#8cc63f;}.cls-2{fill:#384c19;}</style></defs><title>folder-cauldron</title><path class="cls-1" d="M10.42,212.59V47.92a4.52,4.52,0,0,1,4.51-4.51H90.2c2.65,0,3.76,3,4.35,4.41s8,18.72,8,18.72H237.34a8.26,8.26,0,0,1,8.25,8.25v137.8Z"/><path d="M133.23,197.49a63.3,63.3,0,0,1-22.9-4.25,60.79,60.79,0,0,1-20.14-12.74,57.5,57.5,0,0,1-13.37-19.18,55.63,55.63,0,0,1,0-43.64A57.5,57.5,0,0,1,90.19,98.51a60.79,60.79,0,0,1,11.08-8.36,62,62,0,0,1,12.39-5.56h0a2.52,2.52,0,0,1,2.5.56l13.66,13a2.29,2.29,0,0,1-1.42,3.94h0a40.89,40.89,0,0,0-12.3,3.43,39.51,39.51,0,0,0-10.83,7.33,37.37,37.37,0,0,0-8.69,12.47,36.18,36.18,0,0,0,0,28.37,37.37,37.37,0,0,0,8.69,12.47,39.51,39.51,0,0,0,13.09,8.28,41.55,41.55,0,0,0,29.78,0,39.51,39.51,0,0,0,13.09-8.28,37.68,37.68,0,0,0,7.69-10.32,36.22,36.22,0,0,0,3.6-11.72h0a2.46,2.46,0,0,1,4.13-1.36l13.66,13a2.24,2.24,0,0,1,.58,2.38h0A56.5,56.5,0,0,1,185,170a58.81,58.81,0,0,1-8.78,10.55,60.79,60.79,0,0,1-20.14,12.74A63.3,63.3,0,0,1,133.23,197.49Z"/><path class="cls-2" d="M132.7,168.87c-11.25,0-22.13-5.41-27.72-13.78l0-.07a.19.19,0,0,1,0-.22.4.4,0,0,1,.33-.2.37.37,0,0,1,.22.08,29.46,29.46,0,0,0,17.77,6c7.21,0,14.62-2.54,22-7.54a36.84,36.84,0,0,0,3.73-2.89.38.38,0,0,1,.25-.09h13.55a.35.35,0,0,1,.31.16.23.23,0,0,1,0,.24A34.68,34.68,0,0,1,151.86,163a34,34,0,0,1-19.16,5.84Z"/></svg>