<svg id="Layer_1" data-name="Layer 1" xmlns="http://www.w3.org/2000/svg" viewBox="0 0 256 256"><defs><style>.cls-1{fill:#b3b3b3;}.cls-2{fill:gray;}.cls-3{fill:#fff;}</style></defs><title>folder-python</title><path class="cls-1" d="M10.42,212.59V47.92a4.52,4.52,0,0,1,4.51-4.51H90.2c2.65,0,3.76,3,4.35,4.41s8,18.72,8,18.72H237.34a8.26,8.26,0,0,1,8.25,8.25v137.8Z"/><rect class="cls-2" x="10.42" y="82.35" width="235.16" height="116.67"/><path id="path46" class="cls-3" d="M112.24,127.15q0-24.09-13.74-24.76a25.81,25.81,0,0,0-10.67,1.75,15.66,15.66,0,0,0-5.6,3v38.34Q91,151,97.83,150.56,112.23,149.61,112.24,127.15Zm11.3.67q0,12.24-5.76,20.32a21.25,21.25,0,0,1-17.84,9.41q-8.6.27-17.71-5.38V187l-9.83-3.5V106.16a22,22,0,0,1,6.2-5.12q8.77-5.11,21.32-5.25l.14.14a19.56,19.56,0,0,1,17.68,9.41Q123.53,114.1,123.54,127.82Z"/><path id="path48" class="cls-3" d="M183.6,150.69q0,16.42-3.29,22.74t-12.59,10.08a48.2,48.2,0,0,1-16.28,3.24l-1.62-6.19a78.21,78.21,0,0,0,12.51-2.42q7.14-2.42,9.83-7.4,2.16-4,2.15-15.47v-2.56a50.49,50.49,0,0,1-21.13,4.57,19.42,19.42,0,0,1-12.78-4.57,15.55,15.55,0,0,1-6.19-12.64V99.17L144,95.8V137q0,6.6,4.26,10.16t11,3.43q6.76-.15,14.46-5.25v-48h9.83Z"/></svg>