<?xml version="1.0" encoding="utf-8"?>
<!-- Generator: Adobe Illustrator 21.0.0, SVG Export Plug-In . SVG Version: 6.00 Build 0)  -->
<svg version="1.1" id="Layer_1" xmlns="http://www.w3.org/2000/svg" xmlns:xlink="http://www.w3.org/1999/xlink" x="0px" y="0px"
	 viewBox="0 0 128 128" style="enable-background:new 0 0 128 128;" xml:space="preserve">
<style type="text/css">
	.st0{fill:#FFFFFF;}
	.st1{fill:#8CC63F;}
</style>
<path class="st0" d="M65.6,126c-8.3,0-16.3-1.6-23.9-4.7c-7.9-3.2-15-7.9-21-14c-6.1-6.1-10.8-13.2-14-21C3.6,78.7,2,70.6,2,62.4
	s1.6-16.3,4.7-23.9c3.2-7.9,7.9-15,14-21c3.5-3.5,7.4-6.6,11.6-9.2c4.1-2.5,8.4-4.6,12.9-6.1l0,0c0.9-0.3,1.9-0.1,2.6,0.6L62,17
	c1.5,1.5,0.6,4.1-1.5,4.3l0,0c-4.5,0.5-8.8,1.8-12.9,3.8c-4.2,2-8,4.7-11.3,8c-3.9,3.9-7,8.6-9.1,13.7c-2,5-3,10.2-3,15.6
	c0,5.4,1,10.6,3,15.6c2.1,5.1,5.1,9.7,9.1,13.7c3.9,3.9,8.6,7,13.7,9.1c5,2,10.2,3,15.6,3c5.4,0,10.6-1,15.6-3
	c5.1-2.1,9.7-5.1,13.7-9.1c3.3-3.3,6-7.1,8-11.3c1.9-4.1,3.2-8.4,3.8-12.9l0,0c0.3-2.1,2.8-3,4.3-1.5l14.3,14.3
	c0.7,0.7,0.9,1.7,0.6,2.6l0,0c-1.5,4.5-3.6,8.9-6.1,12.9c-2.6,4.2-5.7,8.1-9.2,11.6c-6.1,6.1-13.2,10.8-21,14
	C81.9,124.4,73.9,126,65.6,126z"/>
<path class="st1" d="M83.1,73.5c-0.3,0-0.6,0.1-0.9,0.3c-1.2,1.1-2.6,2.2-4,3.2c-14.3,10.1-29.4,11.6-42.1,1.8
	c-1.1-0.9-2.7,0.5-1.9,1.7c0,0,0,0,0,0.1C44,95.9,68.1,103,86.4,89.9c5.4-3.8,9.6-8.9,12.5-14.6c0.4-0.9-0.2-1.9-1.2-1.9H83.1z"/>
</svg>
