<svg id="Layer_1" data-name="Layer 1" xmlns="http://www.w3.org/2000/svg" viewBox="0 0 387.7 387.7"><defs><style>.cls-1{fill:#fff;}.cls-2{opacity:0.6;}</style></defs><title>logo-white-naked</title><path class="cls-1" d="M198.9,387.7A198.92,198.92,0,0,1,134.94.42h0a8,8,0,0,1,8.17,1.91L187.74,47a8,8,0,0,1-4.65,13.51h0A129.37,129.37,0,1,0,327.23,204.61h0A8,8,0,0,1,340.74,200l44.64,44.64a8,8,0,0,1,1.91,8.17h0A198.73,198.73,0,0,1,198.9,387.7Z"/><path class="cls-1" d="M198.9,387.7A198.92,198.92,0,0,1,134.94.42h0a8,8,0,0,1,8.17,1.91L187.74,47a8,8,0,0,1-4.65,13.51h0A129.37,129.37,0,1,0,327.23,204.61h0A8,8,0,0,1,340.74,200l44.64,44.64a8,8,0,0,1,1.91,8.17h0A198.73,198.73,0,0,1,198.9,387.7Z"/><path class="cls-2" d="M253.42,223.54a4,4,0,0,0-2.76,1.07,122.81,122.81,0,0,1-12.37,10.07c-44.64,31.73-92,36.26-131.73,5.55a4.07,4.07,0,0,0-5.93,5.4l.13.21C131.19,293.69,206.61,315.75,264,275a125.57,125.57,0,0,0,39.06-45.51,4.07,4.07,0,0,0-3.64-5.91Z"/></svg>