<svg id="Layer_1" data-name="Layer 1" xmlns="http://www.w3.org/2000/svg" viewBox="0 0 1024 1024"><defs><style>.cls-1{fill:#fff;}</style></defs><title>privacy-circle-white</title><path class="cls-1" d="M1024,512C1024,229.23,794.77,0,512,0S0,229.23,0,512s229.23,512,512,512S1024,794.77,1024,512ZM62,512C62,263.47,263.47,62,512,62S962,263.47,962,512,760.53,962,512,962,62,760.53,62,512Z"/><path class="cls-1" d="M512,683.87a62.5,62.5,0,1,0-62.5-62.5A62.68,62.68,0,0,0,512,683.87ZM699.5,402.62H668.25v-62.5a156.25,156.25,0,0,0-312.5,0v62.5H324.5a62.68,62.68,0,0,0-62.5,62.5v312.5a62.68,62.68,0,0,0,62.5,62.5h375a62.68,62.68,0,0,0,62.5-62.5V465.12A62.68,62.68,0,0,0,699.5,402.62Zm-284.38-62.5a96.88,96.88,0,0,1,193.75,0v62.5H415.12ZM699.5,777.62h-375V465.12h375Z"/></svg>