<svg id="Layer_1" data-name="Layer 1" xmlns="http://www.w3.org/2000/svg" viewBox="0 0 692 150"><defs><style>.cls-1{fill:#fff;}</style></defs><title>reader-tagline</title><path class="cls-1" d="M129.05,14.06h-1.5c-1.92,0-7.14,0-9.48.72-2.7.84-4.5,5-5.34,7a.45.45,0,0,1-.6.3l-1.08-.3c-.18-.06-.36-.12-.24-.48.6-2.16,2.7-9.9,2.82-10.56s.36-1,.6-1A1,1,0,0,1,115,10l.78.54a5,5,0,0,0,3.42,1c3.18.12,5.7.36,11.34.36h2.88c6.54,0,9.12-.24,12.06-.36a5.91,5.91,0,0,0,3.12-.84l1.14-.72a1.28,1.28,0,0,1,.72-.24c.3,0,.42.18.54,1s1.26,8.16,1.74,10.8c.06.3-.06.42-.36.48l-1,.24c-.24.06-.3,0-.48-.42-.48-1.14-2.28-5.76-4.26-6.72-1.8-.9-7.44-1-10.38-1h-1.68v17.1c0,.84,0,17.64.06,18.66.12,1.5.6,2.4,2,2.4h3.78c.54,0,.6.18.6.6v1.26c0,.3-.06.48-.6.48s-2.52-.18-8.4-.18-8.28.18-9.12.18c-.48,0-.54-.24-.54-.6V52.82c0-.42.06-.6.42-.6h4.08a1.8,1.8,0,0,0,2-1.44c.18-1.74.18-20.16.18-21.3Z"/><path class="cls-1" d="M178.73,40.46c0,1.26.06,8.46.06,9,.06,2.34.42,2.94,1.68,2.94h1.74c.24,0,.3.18.3.42v1.32c0,.3-.12.42-.48.42-.54,0-3.6-.18-5.52-.18-1.26,0-4.86.18-5.82.18-.42,0-.54-.18-.54-.42V52.76c0-.24.12-.36.42-.36h2.34c.9,0,1.08-.72,1.08-2.1,0-.84.12-7,.12-8v-.54c0-.42-.24-.48-.9-.48H159.83c-.48,0-.6.06-.6.36v.54c0,1,0,6.9.06,8,.06,1.86.48,2.22,1.32,2.22h1.8c.24,0,.36.12.36.42v1.32c0,.24-.12.42-.36.42-.72,0-4.08-.18-5.4-.18-1.14,0-5,.18-5.88.18-.3,0-.42-.12-.42-.42V52.76c0-.3.12-.36.42-.36H153c1.38,0,1.44-1,1.5-2.22,0-.78.12-8.22.12-9.18V39.32c0-2.4-.12-7.08-.12-7.68,0-1.74-.66-2.28-1.74-2.28h-1.62c-.36,0-.48-.12-.48-.42V27.68c0-.36.06-.48.48-.48.66,0,4.56.18,6.06.18,1.32,0,4.74-.18,5.4-.18.36,0,.48.12.48.48v1.26c0,.3-.06.42-.48.42h-1.68a1.5,1.5,0,0,0-1.62,1.56c0,.54-.06,5.52-.06,7.32v.48c0,.3.12.48.48.48h13.56c.6,0,.84-.12.84-.6v-.54c0-1.62-.12-6.3-.12-6.78,0-1.26-.6-1.92-1.38-1.92h-1.74c-.3,0-.42-.12-.42-.36V27.62c0-.3.12-.42.42-.42.66,0,4.38.18,5.7.18,1,0,4.62-.18,5.1-.18s.54.18.54.6v1.14c0,.24-.06.42-.54.42h-1.56a1.26,1.26,0,0,0-1.32,1.44c0,.9-.06,7-.06,8.34Z"/><path class="cls-1" d="M197.87,39.44c.36,0,3.9-.18,4.38-.3,1.56-.42,2.16-1.26,2.16-3.12,0-.24.06-.3.3-.3l1.32.06c.24,0,.42.12.36.36-.12.54-.12,3.72-.12,4.26,0,1.32.18,3.18.24,4,0,.24-.12.3-.3.3l-1.26.12c-.18,0-.3,0-.36-.24-.3-1.5-.66-2.46-2.22-2.82a21.34,21.34,0,0,0-4.5-.42v2c0,2.1.12,5.58.12,6.36,0,2.82,1.74,3,4.32,3s4.32-.06,6.36-1.68a31.34,31.34,0,0,0,3.18-4c.3-.42.6-.48.78-.36l1,.54a.37.37,0,0,1,.18.42L211.61,54c-.12.3-.42.6-.66.6s-1.08-.06-3.54-.12-6.36-.06-12.66-.06c-.54,0-1.62.06-2.7.06s-2,.12-2.4.12-.36-.18-.36-.42V52.76c0-.24.12-.36.42-.36h.54c2.82,0,3-.24,3-1.08V38.54c0-3.18-.06-7.08-.12-7.68-.18-1.26-.54-1.5-2.94-1.5h-.6c-.18,0-.24-.12-.24-.42V27.5a.28.28,0,0,1,.3-.3c.9,0,4.2.18,5.1.18l13.44-.06c.6,0,1.38-.12,1.62-.12s.24.12.36.84c.12.54,1.8,5.7,1.92,6.12.06.24.06.36-.06.42l-1,.42c-.12.06-.36.06-.54-.24s-3-3.54-4-4.5a3.58,3.58,0,0,0-2.28-.9l-6.36-.12Z"/><path class="cls-1" d="M244.85,31.4c.48,0,6.9-.24,7.62-.36,1.74-.3,2.22-.78,2.76-2.64a14.18,14.18,0,0,0,.48-2.94.38.38,0,0,1,.42-.42l1.5.06a.36.36,0,0,1,.36.48c-.18,1-.18,5.94-.18,6.84,0,2.1.24,5,.36,6.24a.42.42,0,0,1-.36.48l-1.32.18c-.3.06-.42-.12-.48-.54-.12-.78-.48-2.16-.66-2.82a2.82,2.82,0,0,0-2.58-2.34c-2.82-.3-7-.3-7.92-.3V37c0,3.24.12,9.06.12,10.26.06,3.12,1.56,4.32,3.42,4.68a24.8,24.8,0,0,0,4.44.42c1,0,4-.06,5.28-.18a11.56,11.56,0,0,0,5.22-2.1,55,55,0,0,0,4.92-6.3c.18-.3.36-.54.72-.36l1,.54c.3.18.3.36.12.84l-3.18,8.82a1.27,1.27,0,0,1-1.32.9c-.3,0-1.62-.06-5.22-.12s-9.42-.06-18.78-.06c-2.22,0-3.9.06-5.1.06s-2,.12-2.58.12c-.36,0-.54-.12-.54-.42V52.52c0-.24.18-.3.6-.3h2.4c2.76,0,3-.42,3-2.64V29.48c0-5-.12-12.48-.18-13.08-.24-1.92-.84-2.34-3.06-2.34h-2.16c-.3,0-.48-.06-.48-.42V12c0-.18.12-.3.42-.3,1.32,0,3.42.18,7.38.18h2.64c5.94,0,11.88-.06,17.82-.06,1,0,2.1-.12,2.4-.12s.42.12.48.3l3.06,9.66c.06.24.06.42-.18.54l-.9.48c-.18.12-.42-.06-.48-.18s-4.56-5.94-6-6.84a9.28,9.28,0,0,0-4.56-1.62l-10.68-.24Z"/><path class="cls-1" d="M281.93,44l-2.4,6.42c-.36,1.2-.18,2,1.08,2h1.5c.36,0,.42.18.42.42v1.32c0,.24-.06.42-.36.42-.48,0-3.66-.18-4.62-.18-1.14,0-4.14.18-4.68.18-.24,0-.24-.3-.24-.54V52.76c0-.24,0-.36.24-.36h.84a3.21,3.21,0,0,0,2.46-1.26c.42-.48,3.48-7.68,4.92-10.68.42-.84,4-9,4.32-10,.12-.36.48-1,.06-1.2-.12-.12-.3-.42-.24-.6s.06-.3.6-.42a8.86,8.86,0,0,0,3.36-1.74.76.76,0,0,1,.72-.42c.36,0,.48.24.6.66.84,2.4,3.9,11,4.68,13.38a112.94,112.94,0,0,0,3.9,10.68,3.52,3.52,0,0,0,2.82,1.62H303c.24,0,.3.18.3.36V54c0,.18-.06.54-.42.54-.72,0-3.9-.18-5.28-.18-1.14,0-4.68.18-5.46.18-.42,0-.48-.3-.48-.54V52.76c0-.18.06-.36.3-.36h1a.92.92,0,0,0,1-1c-.24-1.2-1.86-6-2.34-7.38ZM291,42.08l-3.18-10.32c-.12-.36-.18-.6-.36-.6s-.3.18-.48.66-3.84,9.66-4.14,10.26Z"/><path class="cls-1" d="M310.13,53c-.42-.3-.78-.36-.9.12l-.18.48c-.12.3-.42.42-.9.3s-.54-.36-.48-.66c.18-1.68.6-6.48.66-7.44.06-.24.18-.42.42-.42l1.08.12c.24.06.48.18.48.42A7.58,7.58,0,0,0,311.39,50a5.67,5.67,0,0,0,5.1,3c1.92,0,4.8-1.5,4.8-4.08,0-3.42-2.34-4.92-5.52-6.12a18.83,18.83,0,0,1-5.88-3.12c-1.38-1.32-2.1-3.24-2.1-6.18a7,7,0,0,1,2.58-5,8.7,8.7,0,0,1,5.64-1.8,9.35,9.35,0,0,1,4.26.78c.6.36.9.42,1,.12l.24-.42c.12-.18.3-.18.78-.18s.54.24.54.54c0,2,.54,5.88.6,6.72a.33.33,0,0,1-.24.36l-1.08.24c-.18.06-.3-.06-.36-.24-.36-.72-.84-2.82-2.1-4.26a5,5,0,0,0-4-1.62,4,4,0,0,0-4.26,3.66,4.92,4.92,0,0,0,1,2.94c.9,1.14,3.06,2,4.2,2.46,2.76,1,5,1.68,6.48,3.24,1.2,1.26,1.92,2.76,1.92,5.76,0,4.5-2.88,8.34-8.34,8.34A10.3,10.3,0,0,1,310.13,53Z"/><path class="cls-1" d="M345,47.24c.06,1.5,0,3.12.12,3.84.12,1.26,1.08,1.32,2.16,1.32h.78c.3,0,.42.12.42.3v1.44c0,.24-.12.42-.48.42s-3.72-.18-5.7-.18c-1.32,0-4.8.18-5.16.18s-.42-.12-.42-.48V52.76a.35.35,0,0,1,.36-.36h.9c1.92,0,2.28-.36,2.34-1.2.06-.54.06-2.7.06-6.24V42.8c-.54-1.08-7.86-11.82-8.82-12.72a3.32,3.32,0,0,0-2.16-.72h-.84c-.3,0-.42-.12-.42-.48V27.56c0-.18.12-.36.48-.36s3.48.18,4.92.18,5.4-.18,5.82-.18a.38.38,0,0,1,.42.42v1.32c0,.24-.06.42-.42.42h-.9c-1.08,0-1.14.66-.9,1,.36.54,5.34,8.52,6.3,10,.9-1.5,5.88-8.76,6.12-9.24.48-1,.54-1.74-.78-1.74h-1a.38.38,0,0,1-.42-.42V27.62a.38.38,0,0,1,.42-.42c.36,0,3.36.18,5.16.18,1.08,0,3.18-.18,3.54-.18s.42.12.42.48v1.26c0,.3-.12.42-.36.42h-.6a4.27,4.27,0,0,0-2.16.48c-.9.48-7.86,10.26-9.24,12.36Z"/><path class="cls-1" d="M391.55,46.58h.12c.24-1,9.18-26.64,9.42-29.16a4.12,4.12,0,0,0-.9-2.22,2.83,2.83,0,0,0-2.4-1.14h-1.5c-.3,0-.36-.12-.36-.48V12.14c0-.24.06-.42.42-.42.54,0,2.64.18,7.32.18,5,0,7.32-.18,7.92-.18.36,0,.42.18.42.42v1.5c0,.24-.06.42-.42.42h-2.4a1.74,1.74,0,0,0-1.68,2.4l9.36,30.12H417c.66-1.92,9.36-27.24,9.36-30.66,0-1-.48-1.86-2.1-1.86h-1.62c-.36,0-.42-.18-.42-.54V12.14c0-.24.06-.42.48-.42.6,0,2.7.18,6.42.18,3.36,0,5.1-.18,5.58-.18s.42.12.42.42v1.5c0,.24,0,.42-.42.42h-1.44a2.82,2.82,0,0,0-2.4,1.62c-.48.84-13,35.46-14.22,38.34-.3.66-.6,1.56-1.26,1.56s-1-.48-1.32-1.32l-11.1-32.94h-.12c-.54,1.62-11.46,32.46-11.82,33.12s-.66,1.14-1.2,1.14-.84-.24-1.08-1l-13.38-38.4c-.6-1.68-1.44-2.16-2.58-2.16h-2c-.3,0-.36-.24-.36-.48V12.14c0-.3.06-.42.48-.42s2.34.18,6.42.18c4.32,0,6.78-.18,7.38-.18.42,0,.48.18.48.36v1.5c0,.3-.06.48-.48.48h-1c-1.56,0-2.1.84-1.74,2.16Z"/><path class="cls-1" d="M439.55,44l-2.4,6.42c-.36,1.2-.18,2,1.08,2h1.5c.36,0,.42.18.42.42v1.32c0,.24-.06.42-.36.42-.48,0-3.66-.18-4.62-.18-1.14,0-4.14.18-4.68.18-.24,0-.24-.3-.24-.54V52.76c0-.24,0-.36.24-.36h.84a3.21,3.21,0,0,0,2.46-1.26c.42-.48,3.48-7.68,4.92-10.68.42-.84,4-9,4.32-10,.12-.36.48-1,.06-1.2-.12-.12-.3-.42-.24-.6s.06-.3.6-.42a8.86,8.86,0,0,0,3.36-1.74.76.76,0,0,1,.72-.42c.36,0,.48.24.6.66.84,2.4,3.9,11,4.68,13.38a112.94,112.94,0,0,0,3.9,10.68,3.52,3.52,0,0,0,2.82,1.62h1.14c.24,0,.3.18.3.36V54c0,.18-.06.54-.42.54-.72,0-3.9-.18-5.28-.18-1.14,0-4.68.18-5.46.18-.42,0-.48-.3-.48-.54V52.76c0-.18.06-.36.3-.36h1a.92.92,0,0,0,1-1c-.24-1.2-1.86-6-2.34-7.38Zm9.06-1.92-3.18-10.32c-.12-.36-.18-.6-.36-.6s-.3.18-.48.66-3.84,9.66-4.14,10.26Z"/><path class="cls-1" d="M476.21,47.24c.06,1.5,0,3.12.12,3.84.12,1.26,1.08,1.32,2.16,1.32h.78c.3,0,.42.12.42.3v1.44c0,.24-.12.42-.48.42s-3.72-.18-5.7-.18c-1.32,0-4.8.18-5.16.18s-.42-.12-.42-.48V52.76a.35.35,0,0,1,.36-.36h.9c1.92,0,2.28-.36,2.34-1.2.06-.54.06-2.7.06-6.24V42.8c-.54-1.08-7.86-11.82-8.82-12.72a3.32,3.32,0,0,0-2.16-.72h-.84c-.3,0-.42-.12-.42-.48V27.56c0-.18.12-.36.48-.36s3.48.18,4.92.18,5.4-.18,5.82-.18a.38.38,0,0,1,.42.42v1.32c0,.24-.06.42-.42.42h-.9c-1.08,0-1.14.66-.9,1,.36.54,5.34,8.52,6.3,10,.9-1.5,5.88-8.76,6.12-9.24.48-1,.54-1.74-.78-1.74h-1a.38.38,0,0,1-.42-.42V27.62a.38.38,0,0,1,.42-.42c.36,0,3.36.18,5.16.18,1.08,0,3.18-.18,3.54-.18s.42.12.42.48v1.26c0,.3-.12.42-.36.42h-.6a4.27,4.27,0,0,0-2.16.48c-.9.48-7.86,10.26-9.24,12.36Z"/><path class="cls-1" d="M518.57,14.06h-1.5c-1.92,0-7.14,0-9.48.72-2.7.84-4.5,5-5.34,7a.45.45,0,0,1-.6.3l-1.08-.3c-.18-.06-.36-.12-.24-.48.6-2.16,2.7-9.9,2.82-10.56s.36-1,.6-1a1,1,0,0,1,.72.24l.78.54a5,5,0,0,0,3.42,1c3.18.12,5.7.36,11.34.36h2.88c6.54,0,9.12-.24,12.06-.36a5.91,5.91,0,0,0,3.12-.84l1.14-.72a1.28,1.28,0,0,1,.72-.24c.3,0,.42.18.54,1s1.26,8.16,1.74,10.8c.06.3-.06.42-.36.48l-1,.24c-.24.06-.3,0-.48-.42-.48-1.14-2.28-5.76-4.26-6.72-1.8-.9-7.44-1-10.38-1h-1.68v17.1c0,.84,0,17.64.06,18.66.12,1.5.6,2.4,2,2.4H530c.54,0,.6.18.6.6v1.26c0,.3-.06.48-.6.48s-2.52-.18-8.4-.18-8.28.18-9.12.18c-.48,0-.54-.24-.54-.6V52.82c0-.42.06-.6.42-.6h4.08a1.8,1.8,0,0,0,2-1.44c.18-1.74.18-20.16.18-21.3Z"/><path class="cls-1" d="M545.27,52.46c-2.22-1.44-5.34-5.64-5.34-11.28a14.17,14.17,0,0,1,3.3-9.48c3.54-4.26,7.26-5,11.22-5a13,13,0,0,1,9,3.18,14.74,14.74,0,0,1,4.86,11.4,14.06,14.06,0,0,1-2.4,8.34c-2.28,3.24-5.76,5.52-11.94,5.52A16.53,16.53,0,0,1,545.27,52.46Zm17.88-11.1c0-7.86-5.34-12.6-8.88-12.6A6.63,6.63,0,0,0,548.39,31C546,33.26,545,37.1,545,40.16c0,9.54,6.42,12.9,9.3,12.9C562.55,53.06,563.15,44.6,563.15,41.36Z"/><path class="cls-1" d="M11.66,124.16c-.72-.54-1.08-.72-1.38-.72s-.6.42-1,1-.66.72-1.08.72-.66-.3-.54-1c.24-1.5.84-9.12,1-10.86.06-.36.18-.36.42-.36l.9.06c.24,0,.36.12.36.48a11.79,11.79,0,0,0,2.16,7,10,10,0,0,0,8.4,4.44c3.6,0,8.16-2.22,8.16-7.62,0-6.18-4.44-8.46-9.24-10.14-1.86-.66-6.18-2.16-8.76-4.86-2-2-3-4.8-3-8.76a11.33,11.33,0,0,1,3.72-7.68A12,12,0,0,1,20.24,83a17.28,17.28,0,0,1,7.08,1.5c.54.3.84.24,1.14-.06l.78-.72a1.16,1.16,0,0,1,.78-.36c.3,0,.48.48.48,1,0,2.1.78,8.22.84,9.54,0,.3-.06.42-.3.48l-.72.18A.25.25,0,0,1,30,94.4a14.55,14.55,0,0,0-3.72-6.66,8.37,8.37,0,0,0-6.54-2.58c-5.34,0-7.26,4-7.26,7A7.3,7.3,0,0,0,14.3,97.4c1.74,1.74,5.1,3.06,6.84,3.6,4.14,1.32,7.5,2.34,9.66,5,1.56,1.86,2.64,4.2,2.64,8.16,0,7.08-4.32,13.14-12.24,13.14A14.77,14.77,0,0,1,11.66,124.16Z"/><path class="cls-1" d="M67.94,112.46c0,1.26.06,8.46.06,9,.06,2.34.42,2.94,1.68,2.94h1.74c.24,0,.3.18.3.42v1.32c0,.3-.12.42-.48.42-.54,0-3.6-.18-5.52-.18-1.26,0-4.86.18-5.82.18-.42,0-.54-.18-.54-.42v-1.38c0-.24.12-.36.42-.36h2.34c.9,0,1.08-.72,1.08-2.1,0-.84.12-7,.12-8v-.54c0-.42-.24-.48-.9-.48H49c-.48,0-.6.06-.6.36v.54c0,1,0,6.9.06,8,.06,1.86.48,2.22,1.32,2.22h1.8c.24,0,.36.12.36.42v1.32c0,.24-.12.42-.36.42-.72,0-4.08-.18-5.4-.18-1.14,0-5,.18-5.88.18-.3,0-.42-.12-.42-.42v-1.38c0-.3.12-.36.42-.36H42.2c1.38,0,1.44-1,1.5-2.22,0-.78.12-8.22.12-9.18v-1.68c0-2.4-.12-7.08-.12-7.68,0-1.74-.66-2.28-1.74-2.28H40.34c-.36,0-.48-.12-.48-.42V99.68c0-.36.06-.48.48-.48.66,0,4.56.18,6.06.18,1.32,0,4.74-.18,5.4-.18.36,0,.48.12.48.48v1.26c0,.3-.06.42-.48.42H50.12a1.5,1.5,0,0,0-1.62,1.56c0,.54-.06,5.52-.06,7.32v.48c0,.3.12.48.48.48H62.48c.6,0,.84-.12.84-.6v-.54c0-1.62-.12-6.3-.12-6.78,0-1.26-.6-1.92-1.38-1.92H60.08c-.3,0-.42-.12-.42-.36V99.62c0-.3.12-.42.42-.42.66,0,4.38.18,5.7.18,1,0,4.62-.18,5.1-.18s.54.18.54.6v1.14c0,.24-.06.42-.54.42H69.32A1.26,1.26,0,0,0,68,102.8c0,.9-.06,7-.06,8.34Z"/><path class="cls-1" d="M85.16,116l-2.4,6.42c-.36,1.2-.18,2,1.08,2h1.5c.36,0,.42.18.42.42v1.32c0,.24-.06.42-.36.42-.48,0-3.66-.18-4.62-.18-1.14,0-4.14.18-4.68.18-.24,0-.24-.3-.24-.54v-1.26c0-.24,0-.36.24-.36h.84a3.21,3.21,0,0,0,2.46-1.26c.42-.48,3.48-7.68,4.92-10.68.42-.84,4-9,4.32-10,.12-.36.48-1,.06-1.2-.12-.12-.3-.42-.24-.6s.06-.3.6-.42a8.85,8.85,0,0,0,3.36-1.74.76.76,0,0,1,.72-.42c.36,0,.48.24.6.66.84,2.4,3.9,11,4.68,13.38a112.69,112.69,0,0,0,3.9,10.68,3.52,3.52,0,0,0,2.82,1.62h1.14c.24,0,.3.18.3.36V126c0,.18-.06.54-.42.54-.72,0-3.9-.18-5.28-.18-1.14,0-4.68.18-5.46.18-.42,0-.48-.3-.48-.54v-1.26c0-.18.06-.36.3-.36h1a.92.92,0,0,0,1-1c-.24-1.2-1.86-6-2.34-7.38Zm9.06-1.92L91,103.76c-.12-.36-.18-.6-.36-.6s-.3.18-.48.66-3.84,9.66-4.14,10.26Z"/><path class="cls-1" d="M114.5,103.22c-.06-1.2-.6-1.86-2.28-1.86h-.6c-.18,0-.24-.18-.24-.42V99.5c0-.18.12-.3.36-.3s4,.18,5.1.18c.72,0,5.94-.18,6.72-.18,3.6,0,6.3,1,7.8,2.34a6.53,6.53,0,0,1,2.1,4.38c0,4.14-2.34,6.54-7.08,8.22v.12c1.38.3,2.58,2.16,5,5.64a18.82,18.82,0,0,0,3.36,3.84,4.14,4.14,0,0,0,2.7.66c.24,0,.3.18.3.54v1.2c0,.24-.12.42-.36.42s-.6-.06-1.2-.12-1.26-.06-1.86-.06c-1.38,0-2.82.06-3.84.12-1.14-.84-3.78-5.7-4.32-6.6-2.16-3.72-3.06-5-5.58-5a6.09,6.09,0,0,0-1.56.12v7.92a1.5,1.5,0,0,0,1.68,1.5h1.56c.24,0,.36.12.36.3v1.44c0,.3-.12.42-.48.42s-3.66-.18-5.64-.18c-1.5,0-4.56.18-5,.18-.24,0-.36-.18-.36-.48V124.7c0-.18.12-.3.36-.3h.72c1.44,0,2.16-.24,2.16-1.56.06-2.94,0-6.48.06-10.14Zm4.56,9.72a12.67,12.67,0,0,0,1.8.12c6.66,0,7.68-4.68,7.68-6.24a5.11,5.11,0,0,0-2-4.14,10,10,0,0,0-5.7-1.56c-.9,0-1.8.24-1.8,1.32Z"/><path class="cls-1" d="M151,111.44c.36,0,3.9-.18,4.38-.3,1.56-.42,2.16-1.26,2.16-3.12,0-.24.06-.3.3-.3l1.32.06c.24,0,.42.12.36.36-.12.54-.12,3.72-.12,4.26,0,1.32.18,3.18.24,4,0,.24-.12.3-.3.3l-1.26.12c-.18,0-.3,0-.36-.24-.3-1.5-.66-2.46-2.22-2.82a21.34,21.34,0,0,0-4.5-.42v2c0,2.1.12,5.58.12,6.36,0,2.82,1.74,3,4.32,3s4.32-.06,6.36-1.68a31.34,31.34,0,0,0,3.18-4c.3-.42.6-.48.78-.36l1,.54a.37.37,0,0,1,.18.42L164.78,126c-.12.3-.42.6-.66.6s-1.08-.06-3.54-.12-6.36-.06-12.66-.06c-.54,0-1.62.06-2.7.06s-2,.12-2.4.12-.36-.18-.36-.42v-1.38c0-.24.12-.36.42-.36h.54c2.82,0,3-.24,3-1.08V110.54c0-3.18-.06-7.08-.12-7.68-.18-1.26-.54-1.5-2.94-1.5h-.6c-.18,0-.24-.12-.24-.42V99.5a.28.28,0,0,1,.3-.3c.9,0,4.2.18,5.1.18l13.44-.06c.6,0,1.38-.12,1.62-.12s.24.12.36.84c.12.54,1.8,5.7,1.92,6.12.06.24.06.36-.06.42l-1,.42c-.12.06-.36.06-.54-.24s-3-3.54-4-4.5a3.58,3.58,0,0,0-2.28-.9l-6.36-.12Z"/><path class="cls-1" d="M186.56,120.38c0-2.7,1.68-5,3.24-6.48a19,19,0,0,1,4.56-3.06c-2.82-1.62-4.44-3.48-4.44-5.88,0-2.94,3.78-6.3,7.08-6.3,3.78,0,6.66,2.7,6.6,5.88-.12,2.52-2.7,4.56-4.56,5.52a29,29,0,0,1,7.74,7.08,25.06,25.06,0,0,0,3.24-5.28c.12-.6-.3-1.08-1-1.08h-.6a.34.34,0,0,1-.3-.36V109.1c0-.18.12-.3.36-.3s2.4.12,4,.12,3.78-.12,4.08-.12.36.18.36.42v1.2a.35.35,0,0,1-.36.36h-.6a4,4,0,0,0-2.46.6c-.42.3-4.68,6.12-5.46,7.32.6.66,2.28,2.58,2.82,3.06,1.08,1,2.82,2.7,4.62,2.7,2.52,0,4.2-2.46,4.44-2.76s.36-.42.48-.3l.72.54c.18.06.12.18.06.36a8.51,8.51,0,0,1-7.5,4.8c-4.44,0-7-3.78-8.4-5.28-1.86,1.68-4.92,5.28-10.08,5.28C191.06,127.1,186.56,124.76,186.56,120.38Zm17.52-.12c-1.86-2.58-5.1-6.6-8.28-8.34-3.06,1.56-5.46,4.08-5.34,7.2s3.36,5.1,6.18,5.1C200.42,124.22,203,121.46,204.08,120.26ZM193.64,105c0,1.68,2.22,3.36,3.9,4.38,1.44-1.2,2.58-2,2.58-5.4,0-1.5-1.32-3.54-3.12-3.54S193.64,102.08,193.64,105Z"/><path class="cls-1" d="M237.32,84.14c0-.3.06-.42.42-.42.6,0,2.58.18,7.26.18,5,0,7.74-.18,8.28-.18s.6.18.6.42v1.38c0,.3-.06.54-.48.54h-2.88c-1.68,0-2.52.54-2.52,1.56a10.15,10.15,0,0,0,.24,2c.36,2.16,2.58,9.3,3.66,12.66.72,2.28,4.2,12.6,5.58,16.26h.12c1.26-2.82,5.94-15.18,6.42-16.56.6-1.62,2.88-8.52,3.78-11.16a13.13,13.13,0,0,0,.84-3.42c0-.72-.42-1.38-1.92-1.38h-1.56c-.24,0-.3-.18-.3-.54V84.14c0-.3.06-.42.36-.42.54,0,3.3.18,7.08.18,4.38,0,5.88-.18,6.42-.18.36,0,.42.12.42.42v1.5c0,.24-.06.42-.42.42H277.1c-2,0-3.12,1-4.26,2.34-1.56,1.92-6.36,14.22-7.38,16.74-.72,2-8.46,21.06-8.76,21.66s-.54.78-.84.78c-.48,0-.72-.6-1-1.38-1.92-5.52-6.78-19.2-7.56-21.36l-.6-2c-1.44-4.26-4.26-13-5-14.76-.6-1.38-1.2-2-2.46-2h-1.56c-.24,0-.3-.18-.3-.42Z"/><path class="cls-1" d="M285.08,114c0,.36,0,7.26.06,8.16.12,1.38.84,2.22,2.58,2.22h.9c.3,0,.36.12.36.3v1.44c0,.24-.06.42-.36.42-.48,0-3.6-.18-6.3-.18-2,0-5.52.18-5.88.18s-.36-.18-.36-.48v-1.32a.35.35,0,0,1,.36-.36h1.32c1.5,0,2.46-.06,2.58-1.14.06-.54.12-8.16.12-10.2v-2.64c0-1-.12-7-.12-7.8,0-.66-.54-1.26-3.06-1.26H276.2c-.3,0-.36-.18-.36-.42V99.56a.32.32,0,0,1,.36-.36c.36,0,4.08.24,6.9.18,1.74,0,4.8-.18,5.28-.18.24,0,.36.12.36.3v1.44c0,.24-.06.42-.36.42h-1c-1.62,0-2.16.24-2.22,1.5,0,.6-.06,7.74-.06,8.16Z"/><path class="cls-1" d="M304.22,111.44c.36,0,3.9-.18,4.38-.3,1.56-.42,2.16-1.26,2.16-3.12,0-.24.06-.3.3-.3l1.32.06c.24,0,.42.12.36.36-.12.54-.12,3.72-.12,4.26,0,1.32.18,3.18.24,4,0,.24-.12.3-.3.3l-1.26.12c-.18,0-.3,0-.36-.24-.3-1.5-.66-2.46-2.22-2.82a21.33,21.33,0,0,0-4.5-.42v2c0,2.1.12,5.58.12,6.36,0,2.82,1.74,3,4.32,3S313,124.64,315,123a31.34,31.34,0,0,0,3.18-4c.3-.42.6-.48.78-.36l1,.54a.37.37,0,0,1,.18.42L318,126c-.12.3-.42.6-.66.6s-1.08-.06-3.54-.12-6.36-.06-12.66-.06c-.54,0-1.62.06-2.7.06s-2,.12-2.4.12-.36-.18-.36-.42v-1.38c0-.24.12-.36.42-.36h.54c2.82,0,3-.24,3-1.08V110.54c0-3.18-.06-7.08-.12-7.68-.18-1.26-.54-1.5-2.94-1.5h-.6c-.18,0-.24-.12-.24-.42V99.5a.28.28,0,0,1,.3-.3c.9,0,4.2.18,5.1.18l13.44-.06c.6,0,1.38-.12,1.62-.12s.24.12.36.84c.12.54,1.8,5.7,1.92,6.12.06.24.06.36-.06.42l-1,.42c-.12.06-.36.06-.54-.24s-3-3.54-4-4.5a3.59,3.59,0,0,0-2.28-.9l-6.36-.12Z"/><path class="cls-1" d="M354.8,120.2H355c.54-1.8,5.88-16.2,5.88-17.64a1.23,1.23,0,0,0-1.32-1.2h-.9c-.24,0-.3-.18-.3-.42V99.5c0-.18.06-.3.36-.3s3.18.18,4.26.18,3.36-.18,3.72-.18c.18,0,.24.12.24.48V101c0,.24-.06.36-.3.36H366a1.89,1.89,0,0,0-1.44.54c-.42.48-9,22.08-9.9,24.06-.24.54-.6,1.14-1.2,1.14s-.9-.54-1.08-1l-7-19.92h-.12c-.66,1.44-7.32,18.54-8,20-.24.54-.54.9-1,.9s-.78-.3-1-.9l-8.88-23.52a1.93,1.93,0,0,0-2-1.32h-1c-.18,0-.24-.12-.24-.3V99.5c0-.24.06-.3.3-.3s3.36.18,4.68.18c.9,0,4.56-.18,4.92-.18s.36.12.36.42V101a.32.32,0,0,1-.36.36h-.66c-.48,0-.9.48-.66,1.2l5.7,17.64h.18c.36-1.26,6-15.42,6.12-16.5a2.5,2.5,0,0,0-.48-1.68,2,2,0,0,0-1.62-.66h-.84c-.18,0-.24-.12-.24-.36V99.5a.28.28,0,0,1,.3-.3c.3,0,3.66.18,5.28.18,1.2,0,4.86-.18,5.28-.18.18,0,.3.12.3.48V101c0,.24-.06.36-.3.36h-1.2a.84.84,0,0,0-.9,1.2Z"/><path class="cls-1" d="M390.86,91.7c0-3.54-1.8-5.52-4-5.58l-2.46-.06c-.3,0-.36-.24-.36-.42V84.08c0-.24.06-.36.36-.36s.78.06,1.68.06,2.22.12,4.26.12,3.3-.12,4-.12a2.08,2.08,0,0,1,1.74.78l12.6,16.32c.66.84,10.8,13.26,12.24,15.18h.24v-7.14c0-5.34-.06-8.28-.18-11.28-.06-2.34-.36-8.22-.72-9.24a3.2,3.2,0,0,0-3.3-2.34H415.1c-.24,0-.36-.12-.36-.42V84.08a.32.32,0,0,1,.36-.36c.84,0,2.76.18,6.6.18,3.6,0,5-.18,5.82-.18.42,0,.48.18.48.42v1.5c0,.24-.12.42-.36.42H426c-1.62,0-2.22,1-2.34,3.3-.24,4-.24,10-.24,13.86v22.44c0,.84-.06,1.44-.3,1.44-.72,0-1.26-.72-1.44-1l-7.32-9.24c-4.2-5.22-8.58-10.74-8.94-11.1-.66-.6-11.7-14.46-12.06-14.94H393v13.32c0,5.58.48,15.36.6,16.56.24,2.34.6,3.48,2.22,3.48h1.8c.42,0,.48.18.48.54v1.32c0,.36-.06.48-.48.48-.6,0-4.2-.18-5.82-.18-1.26,0-5.4.18-6,.18-.24,0-.3-.12-.3-.42v-1.56a.32.32,0,0,1,.36-.36h2c1.74,0,2.4-.72,2.7-3.66.12-1.14.24-8,.24-18.66Z"/><path class="cls-1" d="M438.26,124.46c-2.22-1.44-5.34-5.64-5.34-11.28a14.17,14.17,0,0,1,3.3-9.48c3.54-4.26,7.26-5,11.22-5a13,13,0,0,1,9,3.18,14.74,14.74,0,0,1,4.86,11.4,14.06,14.06,0,0,1-2.4,8.34c-2.28,3.24-5.76,5.52-11.94,5.52A16.53,16.53,0,0,1,438.26,124.46Zm17.88-11.1c0-7.86-5.34-12.6-8.88-12.6a6.63,6.63,0,0,0-5.88,2.22c-2.34,2.28-3.36,6.12-3.36,9.18,0,9.54,6.42,12.9,9.3,12.9C455.54,125.06,456.14,116.6,456.14,113.36Z"/><path class="cls-1" d="M477.56,101.48a34.76,34.76,0,0,0-7.38.54,13.81,13.81,0,0,0-3.54,4.62c-.12.24-.3.42-.54.3l-1.08-.42c-.3-.12-.3-.36-.24-.6.42-1.32,1.86-6.18,2.1-7.26.12-.42.3-.6.54-.6a.8.8,0,0,1,.48.18l.48.36a3.61,3.61,0,0,0,2.34.66c2.1.12,4.38.24,7.86.24H481c2.4,0,6-.12,8.46-.24a4,4,0,0,0,2.16-.54l.72-.48a1,1,0,0,1,.48-.18c.24,0,.36.18.54,1.32.12.84,1.14,5.16,1.44,6.78.06.24-.06.36-.3.48l-1,.3c-.36.12-.54.06-.66-.24a15.72,15.72,0,0,0-3-4.62c-1.5-.54-6.54-.6-7.62-.6v10.08c0,6.3,0,10.8.06,11.28.12,1,.42,1.56,1.38,1.56h2.28c.3,0,.42.18.42.54v1.26c0,.18-.12.36-.42.36s-4.14-.18-6.12-.18c-1.68,0-5.58.18-6.06.18s-.48-.18-.48-.54v-1.2c0-.3.12-.42.36-.42H476c.9,0,1.32-.48,1.38-1,.18-2.28.18-5.46.18-9.06Z"/><path class="cls-1" d="M508.64,111.44c.36,0,3.9-.18,4.38-.3,1.56-.42,2.16-1.26,2.16-3.12,0-.24.06-.3.3-.3l1.32.06c.24,0,.42.12.36.36-.12.54-.12,3.72-.12,4.26,0,1.32.18,3.18.24,4,0,.24-.12.3-.3.3l-1.26.12c-.18,0-.3,0-.36-.24-.3-1.5-.66-2.46-2.22-2.82a21.33,21.33,0,0,0-4.5-.42v2c0,2.1.12,5.58.12,6.36,0,2.82,1.74,3,4.32,3s4.32-.06,6.36-1.68a31.34,31.34,0,0,0,3.18-4c.3-.42.6-.48.78-.36l1,.54a.37.37,0,0,1,.18.42L522.38,126c-.12.3-.42.6-.66.6s-1.08-.06-3.54-.12-6.36-.06-12.66-.06c-.54,0-1.62.06-2.7.06s-2,.12-2.4.12-.36-.18-.36-.42v-1.38c0-.24.12-.36.42-.36H501c2.82,0,3-.24,3-1.08V110.54c0-3.18-.06-7.08-.12-7.68-.18-1.26-.54-1.5-2.94-1.5h-.6c-.18,0-.24-.12-.24-.42V99.5a.28.28,0,0,1,.3-.3c.9,0,4.2.18,5.1.18L519,99.32c.6,0,1.38-.12,1.62-.12s.24.12.36.84c.12.54,1.8,5.7,1.92,6.12.06.24.06.36-.06.42l-1,.42c-.12.06-.36.06-.54-.24s-3-3.54-4-4.5a3.59,3.59,0,0,0-2.28-.9l-6.36-.12Z"/><path class="cls-1" d="M529.34,99.62c0-.3.06-.42.36-.42.54,0,4.62.18,5.64.18,1.32,0,3.66-.18,5.1-.18,3.36,0,5.88.3,7.26,1a5.43,5.43,0,0,1,3.12,5.22c0,3.78-1.8,4.74-5.58,6.12v.12c4.62,1.38,7.26,3.66,7.26,7.68,0,2.1-1.14,4.86-3.12,5.76-1.62.84-4.44,1.44-8.52,1.44-2,0-4-.18-6.06-.18-1.62,0-3.78.18-4.8.18-.42,0-.48-.18-.48-.6V124.7c0-.24.06-.3.42-.3h1.62a1.73,1.73,0,0,0,1.62-1.5c.18-.84.18-5.46.18-8.64v-4.44c0-1.5-.12-5.7-.18-6.36-.12-2-1.26-2.1-2.4-2.1h-1.14c-.3,0-.3-.06-.3-.42ZM537.8,111c2.76.18,4.92-.06,6.12-.84a4.89,4.89,0,0,0,2.22-4,4.59,4.59,0,0,0-1.8-3.9,9.2,9.2,0,0,0-4.62-1.32,8.45,8.45,0,0,0-1.32.06c-.36.06-.48.36-.54.78-.06.78-.06,4.08-.06,6.6Zm0,9.24c0,2.88.84,4.56,3.84,4.56,2.7,0,5.76-1.56,5.76-5.58a5.59,5.59,0,0,0-3.9-5.7,15.76,15.76,0,0,0-5.7-.66Z"/><path class="cls-1" d="M563.84,124.46c-2.22-1.44-5.34-5.64-5.34-11.28a14.17,14.17,0,0,1,3.3-9.48c3.54-4.26,7.26-5,11.22-5a13,13,0,0,1,9,3.18,14.74,14.74,0,0,1,4.86,11.4,14.06,14.06,0,0,1-2.4,8.34c-2.28,3.24-5.76,5.52-11.94,5.52A16.53,16.53,0,0,1,563.84,124.46Zm17.88-11.1c0-7.86-5.34-12.6-8.88-12.6A6.63,6.63,0,0,0,567,103c-2.34,2.28-3.36,6.12-3.36,9.18,0,9.54,6.42,12.9,9.3,12.9C581.12,125.06,581.72,116.6,581.72,113.36Z"/><path class="cls-1" d="M597.44,124.46c-2.22-1.44-5.34-5.64-5.34-11.28a14.17,14.17,0,0,1,3.3-9.48c3.54-4.26,7.26-5,11.22-5a13,13,0,0,1,9,3.18,14.74,14.74,0,0,1,4.86,11.4,14.06,14.06,0,0,1-2.4,8.34c-2.28,3.24-5.76,5.52-11.94,5.52A16.53,16.53,0,0,1,597.44,124.46Zm17.88-11.1c0-7.86-5.34-12.6-8.88-12.6a6.63,6.63,0,0,0-5.88,2.22c-2.34,2.28-3.36,6.12-3.36,9.18,0,9.54,6.42,12.9,9.3,12.9C614.72,125.06,615.32,116.6,615.32,113.36Z"/><path class="cls-1" d="M633.86,111.92h.3a3.44,3.44,0,0,0,1.68-.48c.9-.48,7.56-8.4,7.92-9s.12-1.2-.6-1.2h-.24c-.18,0-.3-.12-.3-.36V99.5c0-.24.12-.3.36-.3s3,.18,4.8.18c1.2,0,3.12-.18,3.48-.18.18,0,.3.12.3.36v1.38c0,.24-.06.42-.36.42h-.84a5.44,5.44,0,0,0-2.88.72c-1.08.6-7.08,7.14-8.76,9.12.54.6,10.38,12.12,10.8,12.42a3.8,3.8,0,0,0,2.16.78h1c.24,0,.36.18.36.42v1.26c0,.24-.12.48-.36.48s-3.6-.18-5-.18c-.84,0-4.56.18-5,.18s-.42-.18-.42-.48v-1.26a.35.35,0,0,1,.36-.36h.3c.6,0,.78-.48.6-.78-.36-.66-7.14-9.06-7.74-9.48a2.7,2.7,0,0,0-1.44-.48h-.42v2c0,1.86.12,7.32.12,7.86s.66.84,1.2.84h1.26c.24,0,.36.12.36.42v1.26c0,.24-.12.48-.36.48s-3.3-.18-5-.18c-1.2,0-4.5.18-4.74.18s-.3-.18-.3-.48v-1.26c0-.3.12-.42.36-.42h1.32a1.1,1.1,0,0,0,1.14-1c.12-.54.06-6.78.06-11.16v-1.8c0-1.68-.18-7.62-.18-8.22,0-.42-.12-.9-1.26-.9h-1.08c-.24,0-.3-.18-.3-.36V99.56c0-.18.06-.36.42-.36s3.06.18,5.16.18c1.44,0,4-.18,4.44-.18s.36.18.36.48V101a.32.32,0,0,1-.36.36h-1.2c-1,0-1.32.24-1.32,1s-.12,6.48-.12,8Z"/><path class="cls-1" d="M660.08,125c-.42-.3-.78-.36-.9.12l-.18.48c-.12.3-.42.42-.9.3s-.54-.36-.48-.66c.18-1.68.6-6.48.66-7.44.06-.24.18-.42.42-.42l1.08.12c.24.06.48.18.48.42a7.58,7.58,0,0,0,1.08,4.08,5.67,5.67,0,0,0,5.1,3c1.92,0,4.8-1.5,4.8-4.08,0-3.42-2.34-4.92-5.52-6.12a18.83,18.83,0,0,1-5.88-3.12c-1.38-1.32-2.1-3.24-2.1-6.18a7,7,0,0,1,2.58-5,8.7,8.7,0,0,1,5.64-1.8,9.35,9.35,0,0,1,4.26.78c.6.36.9.42,1,.12l.24-.42c.12-.18.3-.18.78-.18s.54.24.54.54c0,2,.54,5.88.6,6.72a.33.33,0,0,1-.24.36l-1.08.24c-.18.06-.3-.06-.36-.24-.36-.72-.84-2.82-2.1-4.26a5,5,0,0,0-4-1.62,4,4,0,0,0-4.26,3.66,4.92,4.92,0,0,0,1,2.94c.9,1.14,3.06,2,4.2,2.46,2.76,1,5,1.68,6.48,3.24,1.2,1.26,1.92,2.76,1.92,5.76,0,4.5-2.88,8.34-8.34,8.34A10.3,10.3,0,0,1,660.08,125Z"/></svg>