<svg id="Layer_1" data-name="Layer 1" xmlns="http://www.w3.org/2000/svg" viewBox="0 0 1024 1024"><title>share-circle</title><path d="M1024,512C1024,229.23,794.77,0,512,0S0,229.23,0,512s229.23,512,512,512S1024,794.77,1024,512ZM62,512C62,263.47,263.47,62,512,62S962,263.47,962,512,760.53,962,512,962,62,760.53,62,512Z"/><path d="M637.63,642.6c-22.25,0-42.15,8.78-57.37,22.54L371.55,543.66a81,81,0,0,0,0-41l206.36-120.3a87.62,87.62,0,1,0-28.1-64.1,95.82,95.82,0,0,0,2.63,20.49L346.09,459.07a87.81,87.81,0,1,0,0,128.21L554.5,709a82.58,82.58,0,0,0-2.34,19,85.47,85.47,0,1,0,85.47-85.47Z"/></svg>