<svg id="Layer_1" data-name="Layer 1" xmlns="http://www.w3.org/2000/svg" viewBox="0 0 2048 1856.5"><defs><style>.cls-1{opacity:0.4;}</style></defs><title>share-dot-out</title><path class="cls-1" d="M1024,0C741.23,0,512,229.23,512,512s229.23,512,512,512,512-229.23,512-512S1306.77,0,1024,0ZM886.19,523.17a95.82,95.82,0,0,1-2.63,20.49l208.7,121.48c15.22-13.76,35.13-22.54,57.37-22.54a85.47,85.47,0,1,1-85.47,85.47,82.58,82.58,0,0,1,2.34-19L858.09,587.27a87.81,87.81,0,1,1,0-128.21l206.36-120.3a95.83,95.83,0,0,1-2.63-20.49,88.32,88.32,0,1,1,28.1,64.1L883.55,502.68A95.82,95.82,0,0,1,886.19,523.17Z"/><path class="cls-1" d="M370.42,1570a37,37,0,0,0,36.86-37l.19-185.21a37.15,37.15,0,0,0-37-37H74.08a37.15,37.15,0,0,0-37,37v185.21a37.15,37.15,0,0,0,37,37H0v37H444.5v-37ZM74.08,1347.71H370.42v185.21H74.08Z"/><path class="cls-1" d="M1172.17,1806a37,37,0,0,0,36.86-37l.19-185.21a37.15,37.15,0,0,0-37-37H875.83a37.15,37.15,0,0,0-37,37v185.21a37.15,37.15,0,0,0,37,37H801.75v37h444.5v-37ZM875.83,1583.71h296.33v185.21H875.83Z"/><path class="cls-1" d="M1973.92,1570a37,37,0,0,0,36.86-37l.19-185.21a37.15,37.15,0,0,0-37-37H1677.58a37.15,37.15,0,0,0-37,37v185.21a37.15,37.15,0,0,0,37,37H1603.5v37H2048v-37Zm-296.33-222.25h296.33v185.21H1677.58Z"/><polygon class="cls-1" points="967.98 1073.48 967.98 1281.8 907.22 1281.8 1024.62 1488.86 1142 1281.8 1081.24 1281.8 1081.24 1073.48 967.98 1073.48"/><polygon class="cls-1" points="1403.09 966.71 1550.39 1114.01 1507.43 1156.98 1736.86 1220.38 1673.45 990.96 1630.48 1033.92 1483.18 886.62 1403.09 966.71"/><polygon class="cls-1" points="564.81 886.62 417.51 1033.92 374.54 990.96 311.14 1220.38 540.56 1156.97 497.59 1114.01 644.9 966.7 564.81 886.62"/></svg>