<svg id="Layer_1" data-name="Layer 1" xmlns="http://www.w3.org/2000/svg" viewBox="0 0 1024 1024"><defs><style>.cls-1{fill:#fff;}</style></defs><title>translate-circle-white</title><path class="cls-1" d="M1024,512C1024,229.23,794.77,0,512,0S0,229.23,0,512s229.23,512,512,512S1024,794.77,1024,512ZM62,512C62,263.47,263.47,62,512,62S962,263.47,962,512,760.53,962,512,962,62,760.53,62,512Z"/><polygon class="cls-1" points="368.18 333.84 315.82 290.32 131.88 512 315.82 733.68 368.18 690.16 220.28 512 368.18 333.84"/><rect class="cls-1" x="342" y="478" width="68" height="68"/><rect class="cls-1" x="614" y="478" width="68" height="68"/><rect class="cls-1" x="478" y="478" width="68" height="68"/><polygon class="cls-1" points="708.18 290.32 655.82 333.84 803.72 512 655.82 690.16 708.18 733.68 892.12 512 708.18 290.32"/></svg>